<svg id="Calque_2" data-name="Calque 2" xmlns="http://www.w3.org/2000/svg" viewBox="0 0 850.39 850.39"><defs><style>.cls-1{fill:#eeeeee;}</style></defs><title>vache</title><path class="cls-1" d="M101.88,66.88c10.58,8.26,54.76,41.26,60.58,45.07"/><path class="cls-1" d="M696.18,237.2c-8-34.27-39.44-50.07-78.16-53.74s-93.21,8.88-93.21,8.88,7.2-17,9.08-22,12.69-29.75,9.44-57.17S530.2,66.26,511.19,70.25,495,93.63,495.11,102.13a79.77,79.77,0,0,1-7.87,34.28c-6,12-14.39,19.32-26,28.67s-30.6,18.38-42.75,16.56-20.79-8.14-23.26-9.45-14-6.94-22.76-10.36-39.39-10.51-53-15.7c-8.43-3.22-20.81-7.12-47.75-24.47s-37.39-49.34-40.19-69.55c-2.27-16.39.89-40.89.89-40.89L193.92,0a576.62,576.62,0,0,0-19.73,55,300.75,300.75,0,0,0-11.73,57c-3.91-2.47-50-36.81-60.58-45.07s-37.68-30-56.21-34.72c-11-2.83-23.55-.9-29.92,4A38.31,38.31,0,0,0,2.46,55.06c-4.65,14-1.94,52.17,1.79,70.62,4.05,20,18.3,37.93,46.69,51,13.8,6.36,42.8,12.62,58.48,14.54,11.76,1.45,19.55,2.24,22,5.16,2.48,4.24,1.35,11.2.27,18.06-.75,4.73-4.23,14-7.53,23-4.5,12.21-9.13,24.61-11,31.6-5.29-3-20.25-10.28-20.25-10.28l-9.77,12.68S99,290,104.85,297.29c-9.68,37.62-26.5,86.36-27.9,180.84-.6,40.58,8.8,73.08,21.81,94.6,17.43,28.85,35.83,36.39,44.55,40.83s42.45,11.47,78.93,19.37c35.42,7.68,72.28,15,81.06,15.56,18.37,1.22,53,5.3,73.8-14.31,14.7-13.88,22.32-32.09,22.48-70.56.06-13.69,4.92-30.81,6.47-40.59,3.88-24.57,24.7-81.45,31.94-98.82,21.61,2,29.06-3.8,33.43-10,4.64-6.54,1.74-20,1.74-20l14.82-9L458.81,378s2-4,10.52-20.14S489,325.72,496.1,319.21c9.35,3.24,17.61,8.39,27.79,14.45s54.76,38.12,93.54,36c34.11-1.88,52.47-27.06,61.7-44.58C687.38,309.44,704.17,271.47,696.18,237.2ZM180,321.15c-3.06,1.92-26.26,8.35-35.82,7.23-1.75-8.83-14.95-27.34-23.49-37.33ZM455.56,407c-2.58.92-8.93,2.37-23.06.18s-27.37-4.11-33.22-6.58a39.91,39.91,0,0,1-20.91-21.41,53.08,53.08,0,0,1-1.86-6.34c3.55.74,76.48,19.45,80.36,21.41C458.3,398.18,458.11,406.09,455.56,407ZM651.15,288.42c-5.67,13.45-13.55,35.46-30.53,39.78s-33.52-5.59-42.38-9.81c-5.94-2.83-23.7-12.79-41.62-24.29C517.78,282,500.58,276.23,488,279c-20.93,4.51-33.49,26.4-41.79,38.49-4,5.81-25.18,44.26-27.62,50.3-4.19-.93-36.8-10.22-39.83-11.29s-10.81-3.59-16.14,3.12-3.05,24.23,9.6,40.9a45.87,45.87,0,0,0,24.91,16.32c-7.79,20.47-22.88,61.11-28.62,88.15s-9.91,46-9.52,56.56c.51,13.88-1.73,37.43-10,43.36-8,5.81-22.09,5.87-42.17,3.09-6.17-.85-76.08-15.16-107.51-21.72C189,584.07,161.72,582,147,568.4c-18.53-17.11-29.86-46.31-29.46-101.87.39-53.35,16.13-117.73,17.33-122.88,5.65,2,21.78,1.4,39.07-3.46,15-4.22,36.74-15.35,42.29-18.92-10.86-5.46-56.81-28-66.32-33.58,5.61-21.62,17-48.33,20.69-61.06,4.65-15.86,3.37-37.49-3.45-49.58-6.06-10.75-19.73-21.36-32.16-22.86-22.8-2.75-53.93-8.6-68.07-14.93-13.55-6.07-22.4-11-24.36-30.77C41.11,93.75,40,79.64,40.25,73.35c9,4.36,29.74,19.37,47.88,34.19,19.93,16.28,58.56,44.29,74.33,51.14,14.65,6.38,40,16.66,43.91,18.23-.83-7.61-3.37-29.59-4.24-42-.39-5.51,1.12-25.12,2.49-31.48,9.71,16.55,16.63,30.65,38.83,47.58,23.42,17.87,39,25.05,59,32.2,23.52,8.41,51.8,15.14,59.51,18,15.28,5.75,23.32,16,51.36,20.7,18.89,3.16,45.8-7.26,57.77-14.84-6.21,9.8-27.85,42.54-40,61,9-3.71,51-22.37,74.41-29.36,22.73-6.8,74.57-17.23,108-14.2,26.83,2.43,36.51,8.6,41.5,18.15C660.46,253.11,656.81,275,651.15,288.42Z"/><path class="cls-1" d="M321.13,537.27c-5.33.94-12.12,5.26-12.1,15.81,0,8,7.3,13,12.1,13a14.63,14.63,0,0,0,14.6-11.84C338.71,540.43,327.36,536.17,321.13,537.27Z"/><path class="cls-1" d="M184,510.86c-5.43,0-12.09,5.63-12.09,12.66s4.25,12.77,11.08,12.77c7.09,0,12.24-7.07,12.24-14.09S190.5,510.86,184,510.86Z"/><path class="cls-1" d="M456.54,598.27c7.56,9.79,21.54,23.32,42.72,20.82,24.09-2.83,48.07-27.31,53.69-32.13s10.15-8.87,15.55-11.86c5.07,3.25,13.62,11.88,20.61,20.92s8.62,11.27,8.62,11.27l-17.17,7.55,10.08,4s-.35,8.6,3.21,12.12c3.34,3.32,8.54,6.09,21.63,2.56,6.31,9.91,25.19,42.67,30.21,57.37,2,5.85,6.82,15.86,8.32,24.27,4.21,23.65,10.84,34,21.37,41,14.87,9.85,35.76,3.63,46.93.92,5.33-1.3,27.23-9.73,48.19-18.24,21.6-8.76,41.62-16.7,46.48-20.35s15.4-10.27,23-29.88c5.7-14.63,8-35.63,3.3-60.53-11-58-26.52-86.15-36.49-108.25,2.85-5.1,10.56-18.21,10.56-18.21L810,494.83s-8.43,6.08-11.36,8.49c-1.88-4.11-6.06-11.24-10.13-18.27-3-5.16-6.12-10.51-7.09-13.34-1.4-4.1-2.84-8.26-1.76-11.14,1.2-2.06,5.91-3.38,13-5.52,9.44-2.87,26.61-9.81,34.42-15.2,16.06-11.09,22.92-23.62,23.27-36.38.32-11.74-2.1-35.53-6.46-43.63a23.89,23.89,0,0,0-10.18-10.19c-4.45-2.35-12.37-2.19-18.84.72C804,355.28,789.66,371.53,784,377.74s-30.31,32.26-32.45,34.2a187.76,187.76,0,0,0-13.31-33.8,361.43,361.43,0,0,0-18-31.7l-22.51,11s4.56,14.74,4.91,25.06c.44,12.73-2.56,33.52-17.28,47.08s-21.92,17.27-26.76,20.15c-7.8,4.65-25.9,12.29-30.9,15.33s-11.52,7.72-12.9,8.8-6,5.88-13.3,8.3-19.94-1.1-28.06-5.61-14.09-8.11-19.05-14.86a49.83,49.83,0,0,1-8.5-20.25c-.82-5.24-1.19-17.46-13.3-17.89s-16.12,12.62-15.18,29.84,10.23,31.29,11.91,34.15,7.94,12.57,7.94,12.57-34.86-1.9-58.28,4.5S437.92,524.11,436.67,546,449.8,589.54,456.54,598.27Zm339.91-80.63c-4.19,7.06-10.33,19.85-10.46,25.47-5.76,1.71-20.72.24-22.81-.61ZM600.66,617.07c2.18-1.61,45-20.92,47.14-21.75a32.62,32.62,0,0,1-.46,4.1,24.94,24.94,0,0,1-10.58,15.4c-3.33,2.14-11.27,4.74-19.73,7.6s-12.52,2.65-14.2,2.35S600.2,619.63,600.66,617.07ZM462.58,545c2.05-6.4,7.34-11.23,23.59-15.6,20.23-5.44,53.24-4.56,67.94-2.81,15.14,1.8,43,8.79,48.92,10.11-9.47-10-26.29-27.87-31.15-33.23,8.17,3.38,25.84,6.91,37.12,3,16.75-5.89,20.59-13.06,29.38-18.23,4.43-2.6,21.11-9.77,34.68-17.45,11.55-6.55,20.38-12.63,32.87-26.12,11.85-12.79,14.6-22.2,18.8-33.42a123.13,123.13,0,0,1,4.9,19.1c.79,7.74,1.58,21.53,1.88,26.3,2.24-1.38,16.73-10.42,25.07-15.9,9-5.9,29.73-27.26,40.25-39.41,9.57-11.06,20.73-22.51,25.8-26.15.81,3.85,1.65,12.64,2.33,21.86.9,12.36-4,16.35-11.7,21.54-8,5.4-26.55,12.33-40.27,16.46-7.49,2.25-14.77,10.24-17.34,17.49-2.91,8.18-1.38,21.61,3.17,30.87,3.66,7.44,13.5,22.65,19.26,35.35-5.26,4.44-31.11,23.23-37.2,27.75,3.79,1.6,18.35,6.12,28,7.11,11.16,1.15,21.14-.24,24.41-2,1.28,3,17.85,41,23.79,73.74,6.18,34.13,2.34,53.31-7.23,65.81-7.6,9.93-24.17,14.13-30.29,16.56-18.63,7.4-60.1,23.68-63.8,24.86-12.06,3.86-20.71,5.32-26.27,2.61s-9.59-17-10.76-25.61c-.89-6.52-5.48-17.76-11.9-33.78s-20.05-39.4-27-51.16a28.59,28.59,0,0,0,13.57-12.7c6-11.61,5.53-22.63,1.54-26.19s-8.52-1.17-10.26-.19-20.82,10.18-23.3,11.2c-2.14-3.45-19.28-24.84-22.36-28-6.4-6.55-16.47-18.68-29.82-19.22-8.05-.32-18,5.08-28.3,14.53-9.8,9-19.66,17-23,19.38-5,3.55-14.12,11.42-25,10.57s-18.11-13.54-23-21.2S460.33,552,462.58,545Z"/><path class="cls-1" d="M699.44,690.53c3.39,0,8,1.94,9.14,8.43.85,4.9-3.09,8.81-6.05,9.32a9.12,9.12,0,0,1-10.24-5.72C689,694.35,695.5,690.52,699.44,690.53Z"/><path class="cls-1" d="M781,659.62c3.34-.58,8,2.18,8.79,6.5s-1.25,8.31-5.45,9c-4.36.76-8.28-3-9-7.36A6.67,6.67,0,0,1,781,659.62Z"/><path class="cls-1" d="M101.88,66.88c10.58,8.26,54.76,41.26,60.58,45.07"/><path class="cls-1" d="M696.18,237.2c-8-34.27-39.44-50.07-78.16-53.74s-93.21,8.88-93.21,8.88,7.2-17,9.08-22,12.69-29.75,9.44-57.17S530.2,66.26,511.19,70.25,495,93.63,495.11,102.13a79.77,79.77,0,0,1-7.87,34.28c-6,12-14.39,19.32-26,28.67s-30.6,18.38-42.75,16.56-20.79-8.14-23.26-9.45-14-6.94-22.76-10.36-39.39-10.51-53-15.7c-8.43-3.22-20.81-7.12-47.75-24.47s-37.39-49.34-40.19-69.55c-2.27-16.39.89-40.89.89-40.89L193.92,0a576.62,576.62,0,0,0-19.73,55,300.75,300.75,0,0,0-11.73,57c-3.91-2.47-50-36.81-60.58-45.07s-37.68-30-56.21-34.72c-11-2.83-23.55-.9-29.92,4A38.31,38.31,0,0,0,2.46,55.06c-4.65,14-1.94,52.17,1.79,70.62,4.05,20,18.3,37.93,46.69,51,13.8,6.36,42.8,12.62,58.48,14.54,11.76,1.45,19.55,2.24,22,5.16,2.48,4.24,1.35,11.2.27,18.06-.75,4.73-4.23,14-7.53,23-4.5,12.21-9.13,24.61-11,31.6-5.29-3-20.25-10.28-20.25-10.28l-9.77,12.68S99,290,104.85,297.29c-9.68,37.62-26.5,86.36-27.9,180.84-.6,40.58,8.8,73.08,21.81,94.6,17.43,28.85,35.83,36.39,44.55,40.83s42.45,11.47,78.93,19.37c35.42,7.68,72.28,15,81.06,15.56,18.37,1.22,53,5.3,73.8-14.31,14.7-13.88,22.32-32.09,22.48-70.56.06-13.69,4.92-30.81,6.47-40.59,3.88-24.57,24.7-81.45,31.94-98.82,21.61,2,29.06-3.8,33.43-10,4.64-6.54,1.74-20,1.74-20l14.82-9L458.81,378s2-4,10.52-20.14S489,325.72,496.1,319.21c9.35,3.24,17.61,8.39,27.79,14.45s54.76,38.12,93.54,36c34.11-1.88,52.47-27.06,61.7-44.58C687.38,309.44,704.17,271.47,696.18,237.2ZM180,321.15c-3.06,1.92-26.26,8.35-35.82,7.23-1.75-8.83-14.95-27.34-23.49-37.33ZM455.56,407c-2.58.92-8.93,2.37-23.06.18s-27.37-4.11-33.22-6.58a39.91,39.91,0,0,1-20.91-21.41,53.08,53.08,0,0,1-1.86-6.34c3.55.74,76.48,19.45,80.36,21.41C458.3,398.18,458.11,406.09,455.56,407ZM651.15,288.42c-5.67,13.45-13.55,35.46-30.53,39.78s-33.52-5.59-42.38-9.81c-5.94-2.83-23.7-12.79-41.62-24.29C517.78,282,500.58,276.23,488,279c-20.93,4.51-33.49,26.4-41.79,38.49-4,5.81-25.18,44.26-27.62,50.3-4.19-.93-36.8-10.22-39.83-11.29s-10.81-3.59-16.14,3.12-3.05,24.23,9.6,40.9a45.87,45.87,0,0,0,24.91,16.32c-7.79,20.47-22.88,61.11-28.62,88.15s-9.91,46-9.52,56.56c.51,13.88-1.73,37.43-10,43.36-8,5.81-22.09,5.87-42.17,3.09-6.17-.85-76.08-15.16-107.51-21.72C189,584.07,161.72,582,147,568.4c-18.53-17.11-29.86-46.31-29.46-101.87.39-53.35,16.13-117.73,17.33-122.88,5.65,2,21.78,1.4,39.07-3.46,15-4.22,36.74-15.35,42.29-18.92-10.86-5.46-56.81-28-66.32-33.58,5.61-21.62,17-48.33,20.69-61.06,4.65-15.86,3.37-37.49-3.45-49.58-6.06-10.75-19.73-21.36-32.16-22.86-22.8-2.75-53.93-8.6-68.07-14.93-13.55-6.07-22.4-11-24.36-30.77C41.11,93.75,40,79.64,40.25,73.35c9,4.36,29.74,19.37,47.88,34.19,19.93,16.28,58.56,44.29,74.33,51.14,14.65,6.38,40,16.66,43.91,18.23-.83-7.61-3.37-29.59-4.24-42-.39-5.51,1.12-25.12,2.49-31.48,9.71,16.55,16.63,30.65,38.83,47.58,23.42,17.87,39,25.05,59,32.2,23.52,8.41,51.8,15.14,59.51,18,15.28,5.75,23.32,16,51.36,20.7,18.89,3.16,45.8-7.26,57.77-14.84-6.21,9.8-27.85,42.54-40,61,9-3.71,51-22.37,74.41-29.36,22.73-6.8,74.57-17.23,108-14.2,26.83,2.43,36.51,8.6,41.5,18.15C660.46,253.11,656.81,275,651.15,288.42Z"/><path class="cls-1" d="M321.13,537.27c-5.33.94-12.12,5.26-12.1,15.81,0,8,7.3,13,12.1,13a14.63,14.63,0,0,0,14.6-11.84C338.71,540.43,327.36,536.17,321.13,537.27Z"/><path class="cls-1" d="M184,510.86c-5.43,0-12.09,5.63-12.09,12.66s4.25,12.77,11.08,12.77c7.09,0,12.24-7.07,12.24-14.09S190.5,510.86,184,510.86Z"/><path class="cls-1" d="M456.54,598.27c7.56,9.79,21.54,23.32,42.72,20.82,24.09-2.83,48.07-27.31,53.69-32.13s10.15-8.87,15.55-11.86c5.07,3.25,13.62,11.88,20.61,20.92s8.62,11.27,8.62,11.27l-17.17,7.55,10.08,4s-.35,8.6,3.21,12.12c3.34,3.32,8.54,6.09,21.63,2.56,6.31,9.91,25.19,42.67,30.21,57.37,2,5.85,6.82,15.86,8.32,24.27,4.21,23.65,10.84,34,21.37,41,14.87,9.85,35.76,3.63,46.93.92,5.33-1.3,27.23-9.73,48.19-18.24,21.6-8.76,41.62-16.7,46.48-20.35s15.4-10.27,23-29.88c5.7-14.63,8-35.63,3.3-60.53-11-58-26.52-86.15-36.49-108.25,2.85-5.1,10.56-18.21,10.56-18.21L810,494.83s-8.43,6.08-11.36,8.49c-1.88-4.11-6.06-11.24-10.13-18.27-3-5.16-6.12-10.51-7.09-13.34-1.4-4.1-2.84-8.26-1.76-11.14,1.2-2.06,5.91-3.38,13-5.52,9.44-2.87,26.61-9.81,34.42-15.2,16.06-11.09,22.92-23.62,23.27-36.38.32-11.74-2.1-35.53-6.46-43.63a23.89,23.89,0,0,0-10.18-10.19c-4.45-2.35-12.37-2.19-18.84.72C804,355.28,789.66,371.53,784,377.74s-30.31,32.26-32.45,34.2a187.76,187.76,0,0,0-13.31-33.8,361.43,361.43,0,0,0-18-31.7l-22.51,11s4.56,14.74,4.91,25.06c.44,12.73-2.56,33.52-17.28,47.08s-21.92,17.27-26.76,20.15c-7.8,4.65-25.9,12.29-30.9,15.33s-11.52,7.72-12.9,8.8-6,5.88-13.3,8.3-19.94-1.1-28.06-5.61-14.09-8.11-19.05-14.86a49.83,49.83,0,0,1-8.5-20.25c-.82-5.24-1.19-17.46-13.3-17.89s-16.12,12.62-15.18,29.84,10.23,31.29,11.91,34.15,7.94,12.57,7.94,12.57-34.86-1.9-58.28,4.5S437.92,524.11,436.67,546,449.8,589.54,456.54,598.27Zm339.91-80.63c-4.19,7.06-10.33,19.85-10.46,25.47-5.76,1.71-20.72.24-22.81-.61ZM600.66,617.07c2.18-1.61,45-20.92,47.14-21.75a32.62,32.62,0,0,1-.46,4.1,24.94,24.94,0,0,1-10.58,15.4c-3.33,2.14-11.27,4.74-19.73,7.6s-12.52,2.65-14.2,2.35S600.2,619.63,600.66,617.07ZM462.58,545c2.05-6.4,7.34-11.23,23.59-15.6,20.23-5.44,53.24-4.56,67.94-2.81,15.14,1.8,43,8.79,48.92,10.11-9.47-10-26.29-27.87-31.15-33.23,8.17,3.38,25.84,6.91,37.12,3,16.75-5.89,20.59-13.06,29.38-18.23,4.43-2.6,21.11-9.77,34.68-17.45,11.55-6.55,20.38-12.63,32.87-26.12,11.85-12.79,14.6-22.2,18.8-33.42a123.13,123.13,0,0,1,4.9,19.1c.79,7.74,1.58,21.53,1.88,26.3,2.24-1.38,16.73-10.42,25.07-15.9,9-5.9,29.73-27.26,40.25-39.41,9.57-11.06,20.73-22.51,25.8-26.15.81,3.85,1.65,12.64,2.33,21.86.9,12.36-4,16.35-11.7,21.54-8,5.4-26.55,12.33-40.27,16.46-7.49,2.25-14.77,10.24-17.34,17.49-2.91,8.18-1.38,21.61,3.17,30.87,3.66,7.44,13.5,22.65,19.26,35.35-5.26,4.44-31.11,23.23-37.2,27.75,3.79,1.6,18.35,6.12,28,7.11,11.16,1.15,21.14-.24,24.41-2,1.28,3,17.85,41,23.79,73.74,6.18,34.13,2.34,53.31-7.23,65.81-7.6,9.93-24.17,14.13-30.29,16.56-18.63,7.4-60.1,23.68-63.8,24.86-12.06,3.86-20.71,5.32-26.27,2.61s-9.59-17-10.76-25.61c-.89-6.52-5.48-17.76-11.9-33.78s-20.05-39.4-27-51.16a28.59,28.59,0,0,0,13.57-12.7c6-11.61,5.53-22.63,1.54-26.19s-8.52-1.17-10.26-.19-20.82,10.18-23.3,11.2c-2.14-3.45-19.28-24.84-22.36-28-6.4-6.55-16.47-18.68-29.82-19.22-8.05-.32-18,5.08-28.3,14.53-9.8,9-19.66,17-23,19.38-5,3.55-14.12,11.42-25,10.57s-18.11-13.54-23-21.2S460.33,552,462.58,545Z"/><path class="cls-1" d="M699.44,690.53c3.39,0,8,1.94,9.14,8.43.85,4.9-3.09,8.81-6.05,9.32a9.12,9.12,0,0,1-10.24-5.72C689,694.35,695.5,690.52,699.44,690.53Z"/><path class="cls-1" d="M781,659.62c3.34-.58,8,2.18,8.79,6.5s-1.25,8.31-5.45,9c-4.36.76-8.28-3-9-7.36A6.67,6.67,0,0,1,781,659.62Z"/></svg>